<svg width="21" height="21" viewBox="0 0 21 21" fill="none" xmlns="http://www.w3.org/2000/svg">
<path d="M20.9082 17.136L19.8311 16.275C19.8513 16.0965 19.8714 15.9285 19.8714 15.75C19.8714 15.5715 19.8613 15.4035 19.8311 15.225L20.8981 14.364C20.9887 14.28 21.0189 14.1435 20.9585 14.028L19.9519 12.2115C19.8915 12.075 19.7607 12.075 19.6298 12.075L18.3917 12.6C18.1199 12.411 17.8482 12.2325 17.5361 12.1065L17.3449 10.7205C17.3348 10.5945 17.2241 10.5 17.1133 10.5H15.1002C14.9693 10.5 14.8586 10.5945 14.8385 10.7205L14.6472 12.1065C14.3452 12.243 14.0533 12.411 13.7916 12.6L12.5434 12.075C12.4327 12.075 12.3018 12.075 12.2314 12.2115L11.2248 14.028C11.1644 14.1435 11.1845 14.28 11.2852 14.364L12.3522 15.225C12.332 15.4035 12.322 15.5715 12.322 15.75C12.322 15.9285 12.332 16.0965 12.3522 16.275L11.2852 17.136C11.1946 17.22 11.1644 17.3565 11.2248 17.472L12.2314 19.2885C12.2918 19.425 12.4226 19.425 12.5434 19.425L13.7916 18.9C14.0533 19.089 14.3352 19.2675 14.6472 19.3935L14.8385 20.7795C14.8586 20.9055 14.9592 21 15.1002 21H17.1133C17.2241 21 17.3348 20.9055 17.3549 20.7795L17.5462 19.3935C17.8482 19.257 18.1199 19.089 18.3917 18.9L19.6298 19.425C19.7607 19.425 19.8915 19.425 19.962 19.2885L20.9686 17.472C21.029 17.3565 20.9988 17.22 20.9082 17.136ZM16.1068 17.325C15.2612 17.325 14.5969 16.6215 14.5969 15.75C14.5969 14.8785 15.2713 14.175 16.1068 14.175C16.9422 14.175 17.6166 14.8785 17.6166 15.75C17.6166 16.6215 16.9422 17.325 16.1068 17.325ZM15.7243 0.231C15.533 0.084 15.3216 0 15.1002 0H1.00792C0.786471 0 0.575087 0.084 0.383835 0.231C-0.0489981 0.588 -0.129525 1.2495 0.212715 1.701L5.03428 8.1375V13.5135C4.99401 13.818 5.09467 14.1435 5.32619 14.385L9.36261 18.5955C9.46327 18.7005 9.56393 18.774 9.71491 18.8265C9.28208 17.85 9.06063 16.8 9.06063 15.75C9.06063 13.8285 9.78538 11.9805 11.0738 10.605V8.1375L15.8954 1.701C16.2376 1.2495 16.1571 0.588 15.7243 0.231ZM9.06063 7.4025V15.309L7.04745 13.209V7.413L3.06136 2.1H13.0467L9.06063 7.4025Z" fill="currentColor"/>
</svg>
